# xmcd CD database file generated by OrangeCD 6.1
#
# Track frame offsets:
#	150
#	14955
#	32270
#	48335
#	64092
#	77172
#	93595
#	111230
#	129507
#	147080
#	169982
#	185015
#	203497
#
# Disc length: 2885 seconds
#
# Revision: 0
# Processed by: cddbd v1.5.2PL0 Copyright (c) Steve Scherf et al.
# Submitted via: OrangeCD 6.1
#
DISCID=b40b430d
DTITLE=Mary Chapin Carpenter - A Place In The World
DYEAR=1996
DGENRE=
TTITLE0=Keeping The Faith
TTITLE1=Hero In Your Own Hometown
TTITLE2=I Can See It Now
TTITLE3=I Want To Be Your Girlfiend
TTITLE4=Let Me Into Your Heart
TTITLE5=What If We Went To Italy
TTITLE6=That's Real
TTITLE7=Ideas Are Like Stars
TTITLE8=Naked To The Eye
TTITLE9=Sudden Gift Of Fate
TTITLE10=The Better To Dream Of You
TTITLE11=A Place In The World
TTITLE12=Just Let Me Into Your Heart
EXTD=
EXTT0=
EXTT1=
EXTT2=
EXTT3=
EXTT4=
EXTT5=
EXTT6=
EXTT7=
EXTT8=
EXTT9=
EXTT10=
EXTT11=
EXTT12=
PLAYORDER=
